<svg width="319" height="164" viewBox="0 0 319 164" fill="none" xmlns="http://www.w3.org/2000/svg">
<g clip-path="url(#clip0_16_2733)">
<path d="M25.4431 139.476C26.0634 139.049 26.1855 137.811 26.46 137.464C26.6685 137.197 28.0972 135.824 28.4938 135.452C30.0344 134.003 31.9004 132.564 33.5783 130.924C33.919 130.592 34.2495 130.255 34.5952 129.918C36.3595 128.202 37.7985 126.266 39.1713 124.887C39.2374 124.822 40 124.545 40.6966 123.881C41.5152 123.096 42.7355 122.558 43.2389 121.366C64.5175 143.068 101.99 142.807 123.32 121.386L141.146 138.978C141.619 139.567 141.202 139.803 140.892 140.246C139.051 142.887 130.921 148.662 127.906 150.554C93.9415 171.864 53.9112 166.461 25.4431 139.476Z" fill="#0BBAEF"/>
<path d="M39.1714 81.6231C39.5883 47.4394 77.9356 26.2853 107.263 45.1907C119.893 53.3354 127.088 66.6769 127.642 81.6181C118.835 81.6332 110.009 81.608 101.202 81.6181C101.284 62.4762 74.3765 56.9726 66.704 74.9021C65.9515 76.6578 66.0125 77.518 65.6108 79.1027C65.4328 79.812 64.7515 80.5516 65.0973 81.6181H39.1714V81.6231Z" fill="#0BBAEF"/>
<path d="M3.07129 63.0094C10.1032 32.4278 35.5867 8.11939 66.6123 1.86622C69.8867 1.20719 73.4967 0.412342 76.7966 0.875167L63.8158 29.2836C54.5366 33.2277 46.1116 38.6306 39.6848 46.4081L3.07129 63.0094Z" fill="#312682"/>
<path d="M70.6953 94.7029C77.9254 101.686 88.8317 101.042 96.3008 94.7381L114.417 113.306C111.88 114.7 109.831 116.898 107.258 118.553C89.6198 129.908 67.2175 127.05 52.386 112.808L70.6902 94.6979L70.6953 94.7029Z" fill="#0BBAEF"/>
<path d="M26.9686 81.623H1.0376C1.40877 74.7058 1.48503 69.9166 3.0714 63.0094L39.6798 46.4081C31.0565 56.8468 27.2787 68.1911 26.9686 81.623Z" fill="#0BBAEF"/>
<path d="M65.6108 81.6231C65.1684 86.2765 67.1971 91.3223 70.6953 94.703L52.3911 112.814C43.6915 104.458 39.0239 93.7321 39.1714 81.6231H65.0972C64.7515 80.5566 65.4328 79.8171 65.6108 79.1078C65.5548 79.9379 65.687 80.7981 65.6108 81.6231Z" fill="#322782"/>
<path d="M150.588 36.4172C151.798 35.733 153.527 38.1226 153.557 39.1086C153.583 40.0041 151.188 43.3495 151.015 45.6586C150.842 47.9677 151.879 51.947 154.269 52.9078C157.869 50.4579 155.739 50.4931 155.215 48.0532C155.011 47.0974 154.9 42.1069 156.618 43.3897C157.05 43.7117 159.918 51.4892 160.518 52.7066L139.59 74.57C139.061 74.5952 137.424 65.7462 137.038 64.5288C133.494 53.3052 128.038 51.6401 131.969 37.861C133.306 33.1724 136.997 27.4726 141.1 24.7459C142.224 24.0014 143.724 25.2339 143.876 26.1042C143.973 26.6526 138.411 33.2176 137.455 35.2349C133.453 43.6765 134.379 55.2672 140.658 62.4611C141.853 63.8295 142.727 65.4192 144.446 63.7792C146.642 61.6814 143.526 60.0615 142.183 57.9335C136.224 48.4858 138.329 36.5027 146.719 29.3088C150.283 33.278 148.895 32.3222 146.759 35.3808C142.229 41.8704 141.299 52.4198 147.476 58.2303C149.119 59.7747 151.107 56.9173 150.995 56.2885C150.949 56.0369 148.63 53.3254 148.102 52.0778C146.571 48.4909 146.495 44.6826 147.893 41.0303C148.137 40.3964 150.359 36.548 150.593 36.4172H150.588Z" fill="#312682"/>
<path d="M101.202 81.6231C89.3451 81.6433 77.4677 81.608 65.6107 81.6231C65.6869 80.7981 65.5547 79.9378 65.6107 79.1078C66.0073 77.5231 65.9513 76.6578 66.7038 74.9071C74.3814 56.9777 101.289 62.4813 101.202 81.6231Z" fill="#312682"/>
<path d="M242.358 114.041C228.137 100.332 251.475 80.139 264.303 94.5923C276.623 108.477 255.695 126.889 242.358 114.041ZM251.703 96.7152C243.228 98.3502 244.595 113.231 255.024 111.083C263.179 109.403 260.693 94.9796 251.703 96.7152Z" fill="#312682"/>
<path d="M207.601 90.5778V97.1177H192.856V100.639H206.075V107.179H192.856V111.204H207.601V117.744H185.229V90.5778H207.601Z" fill="#312682"/>
<path d="M317.934 90.5778V97.1177H303.189C303.143 97.9327 302.971 101.142 303.952 101.142H316.409V107.179H303.189V111.204H317.934V117.744H296.325C296.269 117.744 295.562 117.044 295.562 116.989V90.5778H317.934Z" fill="#312682"/>
<path d="M120.01 8.68285L79.8474 26.2803L91.0587 0.648804C101.151 1.53924 110.863 4.53251 120.015 8.68285H120.01Z" fill="#0BBAEF"/>
<path d="M236.582 96.1015C234.95 96.1518 232.342 99.6582 231.249 99.6532C230.466 99.6532 228.676 97.5654 227.064 97.2334C215.182 94.7985 216.27 113.146 226.55 111.088C228.457 110.706 230.359 108.17 231.238 108.175C231.894 108.175 236.465 111.546 236.567 112.009C231.411 120.435 218.639 120.194 212.98 112.175C208.236 105.454 210.57 94.8237 218.288 91.3324C224.278 88.6208 233.628 89.632 236.587 96.1015H236.582Z" fill="#312682"/>
<path d="M160.823 90.5778V110.701H173.28C174.424 110.701 174.424 117.744 173.28 117.744H153.451C153.395 117.744 152.688 117.044 152.688 116.989V90.5778H160.823Z" fill="#312682"/>
<path d="M279.292 90.5778V110.701H292.512V117.744H271.665V90.5778H279.292Z" fill="#312682"/>
<path d="M162.211 57.4756C162.394 59.1106 163.976 60.7456 162.755 62.28L144.685 81.13C143.327 82.3726 141.568 82.1714 139.844 82.1261L140.328 79.3341C147.4 73.5488 153.623 63.6181 160.691 58.2302C161.199 57.8429 161.337 57.2593 162.216 57.4807L162.211 57.4756Z" fill="#312682"/>
<path d="M164.759 66.531C164.392 67.7937 165.236 69.2828 165.201 70.3292C165.12 72.9703 156.776 78.5745 155.464 81.4722C154.04 82.6041 151.264 81.9753 149.51 82.1212C149.281 81.2509 149.876 81.1151 150.268 80.612C152.688 77.4929 160.172 69.6048 163.233 67.2806C163.742 66.8932 163.879 66.3046 164.759 66.531Z" fill="#312682"/>
<path d="M180.144 90.5778H173.534V101.142H180.144V90.5778Z" fill="#312682"/>
<path d="M152.688 128.308C154.442 128.534 158.993 127.75 160.193 128.932C161.921 130.637 159.664 133.143 159.811 133.324C160.035 133.6 161.276 133.047 161.388 135.094C161.637 139.486 155.581 138.229 152.688 138.369V128.308ZM158.789 130.325C158.617 130.059 154.961 129.571 154.722 129.812V132.333C155.861 132.69 160.076 132.302 158.789 130.325ZM159.298 134.35C159.079 134.008 154.946 133.61 154.722 133.837V136.357C155.942 136.639 160.671 136.493 159.298 134.35Z" fill="#322782"/>
<path d="M297.474 127.901C304.298 126.628 306.306 137.409 299.335 138.349C291.744 139.376 290.925 129.123 297.474 127.901ZM297.464 129.903C293.524 130.708 294.459 137.801 299.778 136.246C303.016 135.301 302.193 128.937 297.464 129.903Z" fill="#322782"/>
<path d="M317.934 128.308V129.817H312.336V132.338C313.175 132.484 317.35 132.016 317.426 132.589C317.787 135.261 314.004 134.159 312.336 134.35C311.477 137.937 315.209 135.698 317.594 136.438C319.012 136.88 318.194 138.37 317.675 138.37H310.302V128.308H317.929H317.934Z" fill="#322782"/>
<path d="M206.075 128.308C209.487 127.523 207.438 130.285 208.404 132.343C209.177 132.192 212.502 132.524 212.69 132.338C213.387 131.648 211.089 127.171 214.719 128.308V138.37C211.083 139.511 213.387 135.034 212.69 134.34C212.527 134.179 208.272 134.179 208.109 134.34C207.89 134.556 208.338 138.133 208.109 138.364C207.814 138.666 206.08 138.143 206.08 137.61V128.303L206.075 128.308Z" fill="#322782"/>
<path d="M256.412 128.308V129.817H250.814V132.046L255.903 132.338V133.842H250.814V136.362C253.315 136.79 257.307 134.923 256.412 138.37H248.785V128.308H256.412Z" fill="#322782"/>
<path d="M229.972 128.303C230.786 129.068 228.04 136.679 232.774 136.403C236.72 136.176 234.34 128.982 235.062 128.303C235.133 128.233 237.02 128.233 237.091 128.303C237.645 128.826 237.482 137.182 234.533 138.073C227.451 140.216 227.664 133.158 227.944 128.303C228.437 128.389 229.845 128.182 229.972 128.303Z" fill="#322782"/>
<path d="M271.162 128.816L270.643 130.823C270.303 131.075 266.515 128.6 266.077 130.577C265.64 132.554 271.97 131.87 271.65 135.562C271.218 140.548 262.091 137.841 264.044 135.854C265.132 135.728 269.291 137.212 269.631 135.593C270.053 133.605 264.191 134.818 264.008 131.09C263.825 127.362 268.655 127.508 271.162 128.816Z" fill="#322782"/>
<path d="M282.851 138.364C279.866 139.26 280.858 136.423 280.258 135.904C280.07 135.743 275.473 135.743 275.285 135.904C274.68 136.423 275.677 139.255 272.692 138.364C272.255 137.972 276.633 128.016 277.573 127.825C279.139 127.498 282.612 136.649 282.856 138.364H282.851ZM278.27 130.823C277.238 129.817 276.256 133.862 276.246 134.34H279.292C279.17 133.771 278.402 130.949 278.27 130.823Z" fill="#322782"/>
<path d="M226.922 138.364C224.166 139.29 225.005 136.403 223.535 135.935C222.941 135.743 219.748 135.698 219.371 135.935C219.209 136.04 218.146 139.713 216.753 138.37C216.239 137.877 220.388 128.067 221.593 127.815C222.407 127.644 222.636 128.479 222.956 128.967C223.536 129.853 227.313 138.043 226.917 138.37L226.922 138.364ZM223.363 134.34C223.734 134.013 221.792 130.481 221.339 130.823L220.317 134.34H223.363Z" fill="#322782"/>
<path d="M203.025 83.0367C203.096 83.1222 203.086 84.1636 202.918 84.4503C202.77 84.7069 198.596 88.0724 198.316 88.1831C196.552 88.8924 194.671 88.4698 192.856 88.5604C192.525 88.2636 195.81 81.8746 196.755 81.5727C197.132 81.452 202.816 82.7902 203.019 83.0367H203.025Z" fill="#312682"/>
<path d="M184.72 135.854C186.134 137.288 181.105 139.642 177.861 137.358C173.677 134.415 175.965 128.026 180.953 127.83C183.475 127.73 186.139 130.416 183.948 130.818C183.241 130.949 178.939 127.865 178.126 132.086C176.778 139.069 184.115 135.235 184.72 135.849V135.854Z" fill="#322782"/>
<path d="M194.889 128.816C194.752 132.348 193.364 130.008 192.062 129.807C186.373 128.922 187.059 139.376 194.63 135.844C195.662 137.544 193.486 138.264 192.093 138.39C182.437 139.255 185.605 123.982 194.889 128.816Z" fill="#322782"/>
<path d="M284.814 128.379C285.058 128.529 286.456 132.901 286.792 133.736C287.02 134.3 286.588 135.135 287.676 134.848C288.215 134.707 290.102 126.406 292.003 128.308C292.527 128.831 288.647 138.244 288.114 138.385C287.773 138.475 286.741 138.465 286.476 138.294C286.024 138.007 282.46 128.665 282.856 128.303C282.927 128.238 284.534 128.202 284.814 128.374V128.379Z" fill="#322782"/>
<path d="M165.913 135.351C166.757 136 168.048 128.469 169.97 130.325C170.331 130.672 167.443 138.239 166.843 139.049C165.643 140.679 164.86 140.492 162.852 140.382C162.323 137.922 164.092 139.577 165.379 138.128C165.013 136.986 161.87 130.788 162.348 130.325C163.92 128.811 165.969 134.254 165.913 135.351Z" fill="#322782"/>
<path d="M18.1877 88.7566C21.1469 88.1428 23.6027 91.5386 21.3808 93.9583C17.1454 98.5665 12.9761 89.8382 18.1877 88.7566Z" fill="#322782"/>
<path d="M24.2838 107.868C28.8192 106.575 30.0801 113.523 26.0786 114.242C21.8229 115.012 20.5772 108.925 24.2838 107.868Z" fill="#322782"/>
<path d="M22.54 128.756C18.8639 125.798 24.7924 120.178 27.5076 124.6C29.5058 127.855 25.2399 130.929 22.54 128.756Z" fill="#322782"/>
<path d="M29.887 116.41C35.0325 115.434 34.9156 124.339 29.4853 122.649C26.3126 121.662 27.0143 116.954 29.887 116.41Z" fill="#322782"/>
<path d="M13.5913 106.872C19.6368 105.031 19.9317 114.006 14.115 112.708C10.9779 112.009 11.1813 107.607 13.5913 106.872Z" fill="#322782"/>
<path d="M10.5405 97.8169C16.7284 95.9405 16.7284 105.534 10.5405 103.658C8.16606 102.938 8.15589 98.5413 10.5405 97.8169Z" fill="#322782"/>
<path d="M12.5996 93.566C9.04557 97.2938 4.5712 90.935 8.3795 88.6359C11.7963 86.5733 14.9385 91.1161 12.5996 93.566Z" fill="#322782"/>
<path d="M21.7621 115.953C24.7975 118.961 19.1436 124.032 16.7691 120.143C14.3947 116.254 19.6114 113.83 21.7621 115.953Z" fill="#322782"/>
<path d="M18.9553 99.3462C21.1162 97.2132 26.2516 99.7638 23.9483 103.537C21.5738 107.426 15.9148 102.355 18.9553 99.3462Z" fill="#322782"/>
<path d="M246.751 128.308V129.817C246.588 129.988 243.7 129.666 243.7 129.817V138.37C243.7 138.47 241.667 138.47 241.667 138.37V129.817C241.667 129.666 238.779 129.983 238.611 129.817V128.308H246.751Z" fill="#322782"/>
<path d="M199.465 128.308V138.369C199.465 138.47 197.432 138.47 197.432 138.369V128.308C197.432 128.207 199.099 128.373 199.465 128.308Z" fill="#322782"/>
<path d="M307.765 128.308V138.369C307.765 138.47 305.731 138.47 305.731 138.369V128.308C305.731 128.207 307.399 128.373 307.765 128.308Z" fill="#322782"/>
<path d="M127.133 45.9C126.589 46.5037 123.122 42.957 123.193 42.1219C123.244 41.5082 127.006 38.3439 127.906 37.866C127.433 40.5272 126.884 43.1633 127.133 45.9Z" fill="#312682"/>
<path d="M21.3755 81.623C21.1975 86.523 15.452 86.0299 14.7656 81.623H21.3755Z" fill="#322782"/>
<path d="M28.9973 96.2121C29.2566 96.3882 30.8176 101.962 30.5277 102.244C24.5128 103.371 26.4398 94.4966 28.9973 96.2121Z" fill="#322782"/>
<path d="M32.048 104.261C32.3124 104.457 34.2292 109.433 34.5953 110.293C28.255 112.17 29.8617 102.641 32.048 104.261Z" fill="#322782"/>
<path d="M12.7319 81.623C12.1116 86.3167 6.94576 86.1457 6.12207 81.623H12.7319Z" fill="#322782"/>
<path d="M1.55117 95.2061L1.04272 88.6661C5.36964 89.1994 6.19333 94.7986 1.55117 95.2061Z" fill="#322782"/>
<path d="M36.568 112.371C36.8477 112.527 40.2543 117.225 38.3374 117.794C33.7766 119.152 33.5224 110.645 36.568 112.371Z" fill="#322782"/>
<path d="M4.09342 105.262L2.56299 99.2306C6.97634 98.4307 8.48643 104.1 4.09342 105.262Z" fill="#322782"/>
<path d="M27.4769 87.6599L27.9854 93.6968C23.5263 94.2401 22.8755 87.3983 27.4769 87.6599Z" fill="#322782"/>
<path d="M33.5784 130.924C31.9005 132.564 30.0345 134.003 28.4939 135.452C26.6889 131.09 29.5362 129.435 33.5784 130.924Z" fill="#322782"/>
<path d="M5.61883 108.789C8.46107 108.633 10.2559 110.082 9.67627 113.045C8.70004 118.02 5.35444 110.857 5.61883 108.789Z" fill="#322782"/>
<path d="M39.1714 124.887C37.7986 126.266 36.3597 128.202 34.5953 129.918C32.948 126.346 35.2462 122.94 39.1714 124.887Z" fill="#322782"/>
<path d="M19.3368 132.428C18.3656 133.107 14.5065 127.624 15.2793 126.899C19.3164 126.331 20.7706 128.836 19.3368 132.428Z" fill="#322782"/>
<path d="M12.2337 123.876C11.9846 123.7 9.45249 118.548 9.68638 118.347C15.8641 116.551 14.4353 125.425 12.2337 123.876Z" fill="#322782"/>
<path d="M25.4432 139.476C25.3263 139.366 24.467 139.295 23.9077 138.757C22.9366 137.831 22.0519 136.88 21.3909 135.698C23.0891 134.098 26.511 134.808 26.4652 137.464C26.1906 137.811 26.0686 139.049 25.4483 139.476H25.4432Z" fill="#322782"/>
<path d="M165.781 81.6231L160.696 81.3716L165.77 76.5924L165.781 81.6231Z" fill="#312682"/>
<path d="M4.08829 81.623C4.33234 83.0216 2.53243 84.9282 1.29689 85.1546C-0.569118 85.4917 1.02233 81.9249 1.03758 81.623H4.08829Z" fill="#322782"/>
<path d="M26.9686 81.623C26.9533 82.2871 27.1821 85.1496 26.7093 85.1496C24.9195 84.8175 23.5925 83.4089 23.4094 81.623H26.9686Z" fill="#322782"/>
<path d="M262.518 132.836C263.271 136.106 260.393 134.536 257.937 134.843C257.185 131.573 260.062 133.143 262.518 132.836Z" fill="#322782"/>
<path d="M40.6968 123.881C40.6815 122.674 39.5223 120.435 40.6714 119.58C42.2781 118.387 42.4509 120.561 43.239 121.366C42.7357 122.558 41.5154 123.096 40.6968 123.881Z" fill="#322782"/>
</g>
<defs>
<clipPath id="clip0_16_2733">
<rect width="318" height="163" fill="white" transform="translate(0.391846 0.648804)"/>
</clipPath>
</defs>
</svg>
